<svg viewBox="0 0 108 108" fill="none" xmlns="http://www.w3.org/2000/svg">
    <defs>
        <linearGradient id="pinGradient" x1="30" y1="24" x2="78" y2="82" gradientUnits="userSpaceOnUse">
            <stop offset="0%" stop-color="#9B7FFF"/>
            <stop offset="50%" stop-color="#7C5CFF"/>
            <stop offset="100%" stop-color="#5A3FCC"/>
        </linearGradient>
        <linearGradient id="roofGradient" x1="44" y1="34" x2="64" y2="42" gradientUnits="userSpaceOnUse">
            <stop offset="0%" stop-color="#2EE59D"/>
            <stop offset="100%" stop-color="#00D4FF"/>
        </linearGradient>
        <radialGradient id="innerCircle" cx="54" cy="48" r="16" gradientUnits="userSpaceOnUse">
            <stop offset="0%" stop-color="#0B1220"/>
            <stop offset="100%" stop-color="#050A10"/>
        </radialGradient>
    </defs>
    <!-- Main pin body -->
    <path d="M54,24 C40,24 30,34 30,48 C30,66 54,82 54,82 C54,82 78,66 78,48 C78,34 68,24 54,24 Z" fill="url(#pinGradient)"/>
    <!-- Inner circle -->
    <circle cx="54" cy="48" r="16" fill="url(#innerCircle)"/>
    <!-- Building base -->
    <rect x="46" y="42" width="16" height="14" fill="#00D4FF"/>
    <!-- Building roof -->
    <path d="M44,42 L54,34 L64,42 Z" fill="url(#roofGradient)"/>
    <!-- Windows row 1 -->
    <rect x="48" y="44" width="3" height="3" fill="#0B1220"/>
    <rect x="57" y="44" width="3" height="3" fill="#0B1220"/>
    <!-- Windows row 2 -->
    <rect x="48" y="49" width="3" height="3" fill="#0B1220"/>
    <rect x="57" y="49" width="3" height="3" fill="#0B1220"/>
    <!-- Door -->
    <rect x="52" y="51" width="4" height="5" fill="#7C5CFF"/>
</svg>
